<svg width="36" height="43" viewBox="0 0 36 43" fill="none" xmlns="http://www.w3.org/2000/svg">
<path d="M33.5218 37.1627C33.4187 37.0094 33.253 36.9094 33.0693 36.8896H32.9855C22.0855 36.9011 13.24 28.0744 13.2284 17.1744C13.2217 10.8561 16.2404 4.91646 21.3485 1.19774C21.636 1.00529 21.7131 0.616216 21.5206 0.32871C21.4035 0.153692 21.2062 0.0492542 20.9956 0.0507981L21 0.0552094C9.40324 0.0539963 0.00121322 9.45403 1.17404e-07 21.0508C-0.00121299 32.6475 9.39883 42.0496 20.9956 42.0508C25.4356 42.0512 29.7614 40.6443 33.3516 38.0321C33.6387 37.839 33.7149 37.4498 33.5218 37.1627Z" fill="#1D2A3F"/>
<path d="M26.7821 24.6824C26.7073 24.6187 26.6186 24.5737 26.5231 24.5507L26.5187 24.5419L24.8247 24.136L23.916 22.6626C23.7369 22.3666 23.3518 22.2718 23.0558 22.4509C22.9691 22.5033 22.8964 22.576 22.8441 22.6626L21.9265 24.136L20.259 24.5419C19.9193 24.6069 19.6966 24.9351 19.7617 25.2749C19.7822 25.3822 19.8305 25.4823 19.9017 25.5653L21.031 26.8887L20.8987 28.6267C20.8679 28.9713 21.1222 29.2756 21.4668 29.3064C21.5744 29.316 21.6826 29.2977 21.7809 29.2531L23.3955 28.5914L24.9747 29.2399C25.2901 29.3819 25.661 29.2414 25.8032 28.926C25.8454 28.8322 25.8639 28.7294 25.857 28.6267L25.7246 26.8887L26.8539 25.5653C27.0779 25.3016 27.0458 24.9063 26.7821 24.6824Z" fill="#1D2A3F"/>
<path d="M29.5036 8.69617C29.4287 8.63254 29.34 8.58754 29.2445 8.56449L29.2533 8.58655L26.3595 7.88074L24.7979 5.35307C24.6188 5.05707 24.2337 4.96223 23.9377 5.14132C23.851 5.19371 23.7784 5.26638 23.726 5.35307L22.16 7.88956L19.2926 8.59096C18.9547 8.66529 18.7411 8.99945 18.8154 9.33735C18.8347 9.42492 18.8725 9.50741 18.9265 9.57909L20.8542 11.8509L20.6292 14.8241C20.5985 15.1688 20.8528 15.473 21.1974 15.5038C21.3049 15.5134 21.4131 15.4951 21.5115 15.4505L24.2686 14.3212L26.9903 15.4373C27.3057 15.5793 27.6766 15.4388 27.8188 15.1234C27.861 15.0296 27.8795 14.9268 27.8726 14.8241L27.6476 11.8509L29.5754 9.57909C29.7993 9.31541 29.7672 8.92015 29.5036 8.69617Z" fill="#1D2A3F"/>
<path d="M35.1018 18.838C35.0269 18.7743 34.9382 18.7293 34.8427 18.7063L34.8251 18.6975L33.5017 18.3799L32.8003 17.2417C32.6212 16.9457 32.2361 16.8509 31.9401 17.03C31.8534 17.0824 31.7807 17.1551 31.7284 17.2417L31.0358 18.4019L29.7565 18.7151C29.4174 18.7834 29.1977 19.1136 29.266 19.4528C29.286 19.5528 29.3303 19.6463 29.3948 19.7253L30.277 20.7531L30.1756 22.0765C30.1448 22.4212 30.3991 22.7254 30.7438 22.7562C30.8513 22.7658 30.9595 22.7475 31.0578 22.7029L32.3018 22.1912L33.5105 22.6853C33.8259 22.8273 34.1968 22.6868 34.339 22.3714C34.3812 22.2776 34.3997 22.1748 34.3928 22.0721L34.2913 20.7487L35.1736 19.7209C35.3976 19.4572 35.3655 19.062 35.1018 18.838Z" fill="#1D2A3F"/>
</svg>
