<svg width="48" height="48" viewBox="0 0 48 48" fill="none" xmlns="http://www.w3.org/2000/svg">
<circle cx="23.6865" cy="23.2123" r="13.0805" stroke="white" stroke-width="7"/>
<path d="M23.6864 36.7163V12.5561V9.9502C26.213 10.5029 31.1713 9.7134 33.6347 12.5558C36.7139 16.1087 37.6614 23.4519 38.1351 27.4786C38.5141 30.7 27.95 36.1636 23.6864 36.7163Z" fill="white"/>
<path d="M22.8198 1.5C23.2047 0.833334 24.167 0.833333 24.5519 1.5L25.6917 3.47415C26.0766 4.14082 25.5954 4.97415 24.8256 4.97415H22.5461C21.7763 4.97415 21.2951 4.14082 21.68 3.47415L22.8198 1.5Z" fill="white"/>
<path d="M24.5531 45.873C24.1682 46.5397 23.2059 46.5397 22.821 45.873L21.6813 43.8989C21.2964 43.2322 21.7775 42.3989 22.5473 42.3989H24.8268C25.5966 42.3989 26.0778 43.2322 25.6929 43.8989L24.5531 45.873Z" fill="white"/>
<path d="M7.38517 8.61042C7.18593 7.86685 7.86634 7.18644 8.60991 7.38568L10.8118 7.97567C11.5554 8.17491 11.8044 9.10437 11.2601 9.6487L9.64819 11.2606C9.10386 11.8049 8.1744 11.5559 7.97516 10.8123L7.38517 8.61042Z" fill="white"/>
<path d="M39.9876 38.7626C40.1869 39.5062 39.5065 40.1866 38.7629 39.9874L36.561 39.3974C35.8174 39.1981 35.5684 38.2687 36.1127 37.7243L37.7246 36.1125C38.2689 35.5681 39.1984 35.8172 39.3976 36.5607L39.9876 38.7626Z" fill="white"/>
<path d="M1.5 24.5529C0.833334 24.168 0.833333 23.2057 1.5 22.8208L3.47415 21.681C4.14082 21.2961 4.97415 21.7773 4.97415 22.5471L4.97415 24.8266C4.97415 25.5964 4.14082 26.0775 3.47415 25.6926L1.5 24.5529Z" fill="white"/>
<path d="M45.8729 22.8202C46.5396 23.2051 46.5396 24.1673 45.8729 24.5522L43.8988 25.692C43.2321 26.0769 42.3988 25.5958 42.3988 24.826L42.3988 22.5464C42.3988 21.7766 43.2321 21.2955 43.8988 21.6804L45.8729 22.8202Z" fill="white"/>
<path d="M8.6092 39.9881C7.86563 40.1874 7.18522 39.5069 7.38446 38.7634L7.97445 36.5615C8.17369 35.8179 9.10315 35.5689 9.64748 36.1132L11.2594 37.7251C11.8037 38.2694 11.5547 39.1989 10.8111 39.3981L8.6092 39.9881Z" fill="white"/>
<path d="M38.7637 7.38688C39.5073 7.18764 40.1877 7.86805 39.9885 8.61162L39.3985 10.8135C39.1992 11.5571 38.2698 11.8061 37.7254 11.2618L36.1136 9.6499C35.5692 9.10557 35.8183 8.17611 36.5618 7.97687L38.7637 7.38688Z" fill="white"/>
</svg>
