<svg width="62" height="75" viewBox="0 0 62 75" fill="none" xmlns="http://www.w3.org/2000/svg">
<path fill-rule="evenodd" clip-rule="evenodd" d="M23 0.5C10.5736 0.5 0.5 10.5736 0.5 23V53.338C0.5 65.0255 9.97456 74.5 21.662 74.5H23C24.1046 74.5 25 73.6046 25 72.5C25 71.3954 24.1046 70.5 23 70.5H21.662C12.1837 70.5 4.5 62.8163 4.5 53.338V23C4.5 12.7827 12.7827 4.5 23 4.5V0.5ZM61.1213 35.8787L42.0294 16.7868C40.8579 15.6152 38.9584 15.6152 37.7868 16.7868C36.6152 17.9584 36.6152 19.8579 37.7868 21.0294L51.7574 35H22V41H51.7574L37.7868 54.9706C36.6152 56.1421 36.6152 58.0416 37.7868 59.2132C38.9584 60.3848 40.8579 60.3848 42.0294 59.2132L61.1213 40.1213C62.2929 38.9497 62.2929 37.0503 61.1213 35.8787Z" fill="url(#paint0_linear_1_70)"/>
<defs>
<linearGradient id="paint0_linear_1_70" x1="0.5" y1="0.5" x2="73.2511" y2="60.9621" gradientUnits="userSpaceOnUse">
<stop stop-color="#E8DCF8"/>
<stop offset="1" stop-color="#D5C5EB"/>
</linearGradient>
</defs>
</svg>
