<svg width="74" height="74" viewBox="0 0 74 74" fill="none" xmlns="http://www.w3.org/2000/svg">
<path fill-rule="evenodd" clip-rule="evenodd" d="M32.375 4.625C32.375 2.07068 34.4457 0 37 0C39.5543 0 41.625 2.07068 41.625 4.625V8.46176C46.1582 9.19074 50.3389 10.9738 53.9076 13.5516L56.6222 10.8371C58.4284 9.03088 61.3568 9.03088 63.1629 10.8371C64.9691 12.6432 64.9691 15.5716 63.1629 17.3778L60.4484 20.0924C63.0262 23.6611 64.8093 27.8418 65.5382 32.375H69.375C71.9293 32.375 74 34.4457 74 37C74 39.5543 71.9293 41.625 69.375 41.625H65.5382C64.8092 46.1582 63.0262 50.3389 60.4484 53.9076L63.163 56.6222C64.9691 58.4284 64.9691 61.3568 63.1629 63.163C61.3568 64.9691 58.4284 64.9691 56.6222 63.163L53.9076 60.4484C50.3389 63.0262 46.1582 64.8092 41.625 65.5382V69.375C41.625 71.9293 39.5543 74 37 74C34.4457 74 32.375 71.9293 32.375 69.375V65.5382C27.8418 64.8092 23.6611 63.0262 20.0924 60.4484L17.3778 63.163C15.5716 64.9691 12.6432 64.9691 10.837 63.1629C9.03085 61.3568 9.03085 58.4284 10.837 56.6222L13.5516 53.9076C10.9738 50.3389 9.19074 46.1582 8.46176 41.625H4.625C2.07068 41.625 0 39.5543 0 37C0 34.4457 2.07068 32.375 4.625 32.375H8.46176C9.19074 27.8418 10.9738 23.6611 13.5516 20.0924L10.837 17.3778C9.03086 15.5716 9.03086 12.6432 10.837 10.837C12.6432 9.03087 15.5716 9.03087 17.3778 10.837L20.0924 13.5516C23.6611 10.9738 27.8418 9.19075 32.375 8.46176V4.625ZM51.1742 21.6322C51.332 21.8614 51.5128 22.0795 51.7166 22.2833C51.9205 22.4872 52.1386 22.668 52.3678 22.8258C55.628 26.3588 57.6853 31.0187 57.8895 36.1551C57.8389 36.4291 57.8125 36.7114 57.8125 37C57.8125 37.2886 57.8389 37.5709 57.8895 37.8449C57.6853 42.9813 55.628 47.6412 52.3677 51.1743C52.1385 51.3321 51.9205 51.5129 51.7167 51.7167C51.5129 51.9205 51.3321 52.1386 51.1743 52.3677C47.6412 55.628 42.9813 57.6853 37.8449 57.8895C37.5709 57.8389 37.2886 57.8125 37 57.8125C36.7114 57.8125 36.4291 57.8389 36.1551 57.8895C31.0186 57.6853 26.3587 55.628 22.8257 52.3677C22.6679 52.1385 22.4871 51.9204 22.2833 51.7167C22.0795 51.5129 21.8615 51.3321 21.6323 51.1743C18.372 47.6412 16.3147 42.9813 16.1105 37.8449C16.1611 37.5709 16.1875 37.2886 16.1875 37C16.1875 36.7114 16.1611 36.4291 16.1105 36.1551C16.3147 31.0187 18.372 26.3588 21.6323 22.8257C21.8615 22.6679 22.0795 22.4871 22.2833 22.2833C22.4871 22.0795 22.6679 21.8615 22.8257 21.6323C26.3588 18.372 31.0187 16.3147 36.1551 16.1105C36.4291 16.1611 36.7114 16.1875 37 16.1875C37.2886 16.1875 37.5709 16.1611 37.8449 16.1105C42.9813 16.3147 47.6412 18.372 51.1742 21.6322Z" fill="url(#paint0_linear_1_63)"/>
<defs>
<linearGradient id="paint0_linear_1_63" x1="0" y1="0" x2="74" y2="74" gradientUnits="userSpaceOnUse">
<stop stop-color="#E8DCF8"/>
<stop offset="1" stop-color="#D5C5EB"/>
</linearGradient>
</defs>
</svg>
