<svg width="16" height="13" viewBox="0 0 16 13" fill="none" xmlns="http://www.w3.org/2000/svg">
<path d="M14.4784 5.60939L14.8756 5.30571L14.8754 5.30533L14.4784 5.60939ZM14.4784 7.09225L14.8754 7.3963L14.8754 7.39623L14.4784 7.09225ZM1.25415 7.09225L1.65108 6.78818L1.649 6.78551L1.25415 7.09225ZM1 6.35082L0.5 6.35082L1 6.35082ZM1.25415 5.60939L1.64901 5.91613L1.65107 5.91345L1.25415 5.60939ZM14.0812 5.91307C14.2829 6.17681 14.2826 6.52564 14.0815 6.78826L14.8754 7.39623C15.3515 6.77456 15.3512 5.92768 14.8756 5.30571L14.0812 5.91307ZM14.0815 6.78819C13.5618 7.46659 12.6853 8.49457 11.5859 9.34875C10.4808 10.2073 9.20159 10.8508 7.86629 10.8508V11.8508C9.51813 11.8508 11.0118 11.0611 12.1994 10.1384C13.3926 9.21135 14.3286 8.11004 14.8754 7.3963L14.0815 6.78819ZM7.86629 10.8508C6.53099 10.8508 5.25177 10.2073 4.14671 9.34875C3.04729 8.49457 2.17075 7.46659 1.65107 6.78819L0.857221 7.3963C1.40397 8.11004 2.33993 9.21135 3.53319 10.1384C4.72081 11.0611 6.21444 11.8508 7.86629 11.8508V10.8508ZM1.649 6.78551C1.55243 6.66119 1.5 6.50824 1.5 6.35082L0.5 6.35082C0.5 6.73042 0.626414 7.09921 0.859289 7.39898L1.649 6.78551ZM1.5 6.35082C1.5 6.19339 1.55243 6.04045 1.649 5.91613L0.859289 5.30265C0.626413 5.60243 0.5 5.97122 0.5 6.35082L1.5 6.35082ZM1.65107 5.91345C2.17075 5.23504 3.04729 4.20706 4.14671 3.35289C5.25177 2.49434 6.53099 1.85082 7.86629 1.85082V0.850817C6.21444 0.850817 4.72081 1.64051 3.53319 2.56321C2.33993 3.49029 1.40397 4.59159 0.857221 5.30533L1.65107 5.91345ZM7.86629 1.85082C9.20159 1.85082 10.4808 2.49434 11.5859 3.35289C12.6853 4.20706 13.5618 5.23504 14.0815 5.91345L14.8754 5.30533C14.3286 4.59159 13.3926 3.49029 12.1994 2.56321C11.0118 1.64051 9.51813 0.850817 7.86629 0.850817V1.85082ZM9.5091 6.35082C9.5091 7.25815 8.77357 7.99368 7.86625 7.99368V8.99368C9.32586 8.99368 10.5091 7.81043 10.5091 6.35082H9.5091ZM7.86625 7.99368C6.95892 7.99368 6.22339 7.25815 6.22339 6.35082H5.22339C5.22339 7.81043 6.40664 8.99368 7.86625 8.99368V7.99368ZM6.22339 6.35082C6.22339 5.4435 6.95892 4.70796 7.86625 4.70796V3.70796C6.40664 3.70796 5.22339 4.89121 5.22339 6.35082H6.22339ZM7.86625 4.70796C8.77357 4.70796 9.5091 5.4435 9.5091 6.35082H10.5091C10.5091 4.89121 9.32586 3.70796 7.86625 3.70796V4.70796ZM2.85315 12.1142L13.4509 1.3508L12.7384 0.649197L2.14058 11.4125L2.85315 12.1142Z" fill="#181818"/>
</svg>
